PathFileType	4	(X/Y/Z)	D:\TRACE\spotREDO_2-26-24\spot_Both_Motion_3_9-platform.trc
DataRate	CameraRate	NumFrames	NumMarkers	Units	OrigDataRate	OrigDataStartFrame	OrigNumFrames
100.00	100.00	      42	5	mm	100.00	1	      7000
Frame#	Time	Left_Front			Right_Front			Left_Aft			Right_Aft			Post			
		X1	Y1	Z1	X2	Y2	Z2	X3	Y3	Z3	X4	Y4	Z4	X5	Y5	Z5	

1	0.000	-736.26532	99.60688	-539.17828	678.43335	94.17938	-455.10626	-807.10669	-108.12107	661.78571	762.64624	-101.89674	666.61755	-43.16229	789.29633	-828.06396	
2	0.010	-736.27069	99.62823	-539.16492	678.47150	94.19003	-455.03683	-807.10602	-108.16124	661.82428	762.66272	-101.91193	666.62109	-43.13845	789.32776	-828.11877	
3	0.020	-736.23358	99.62469	-539.17114	678.46741	94.21491	-455.00089	-807.09955	-108.12296	661.82178	762.65674	-101.90879	666.61066	-43.13888	789.33698	-828.20514	
4	0.030	-736.23065	99.61397	-539.16699	678.46295	94.18026	-455.03394	-807.11023	-108.13126	661.79706	762.68250	-101.90186	666.60492	-43.15512	789.35376	-828.17609	
5	0.040	-736.24524	99.59444	-539.13586	678.45667	94.21400	-455.04846	-807.08569	-108.13888	661.77502	762.65350	-101.89098	666.58325	-43.15056	789.34174	-828.12561	
6	0.050	-736.27234	99.68096	-539.19232	678.47845	94.19382	-455.02771	-807.08771	-108.03146	661.81494	762.65729	-101.81300	666.61694	-43.13970	789.26733	-827.97668	
7	0.060	-736.27948	99.61298	-539.20245	678.52502	94.16556	-454.99847	-807.12720	-108.02946	661.77942	762.59772	-101.83622	666.57141	-43.09845	789.21783	-827.84760	
8	0.070	-736.27515	99.62176	-539.19531	678.48962	94.13406	-455.05051	-807.11273	-107.98631	661.78821	762.62280	-101.88500	666.55145	-43.12690	789.15985	-827.76062	
9	0.080	-736.26660	99.58063	-539.22150	678.48083	94.13395	-455.07236	-807.11542	-108.01570	661.79340	762.59576	-101.78696	666.56219	-43.15664	789.16266	-827.72699	
10	0.090	-736.29480	99.63396	-539.22467	678.45135	94.19270	-455.06766	-807.11273	-108.04515	661.79187	762.69739	-101.83297	666.58997	-43.19869	789.14752	-827.76599	
11	0.100	-736.27448	99.62481	-539.17786	678.46417	94.19409	-455.01810	-807.08447	-107.98243	661.80865	762.66187	-101.77754	666.60071	-43.09333	789.24182	-827.86487	
12	0.110	-736.24860	99.60706	-539.18115	678.42133	94.17997	-455.09622	-807.07751	-108.10870	661.80353	762.68829	-101.85732	666.58881	-43.12802	789.26709	-827.97278	
13	0.120	-736.25659	99.63448	-539.16827	678.45886	94.16142	-455.06873	-807.10730	-108.10748	661.82312	762.68518	-101.92302	666.61237	-43.17399	789.30646	-828.05005	
14	0.130	-736.23846	99.57764	-539.14844	678.48254	94.16454	-455.02222	-807.09210	-108.16592	661.81036	762.70233	-101.98046	666.64581	-43.12289	789.34430	-828.13428	
15	0.140	-736.27338	99.63789	-539.18237	678.45685	94.19610	-455.01538	-807.08405	-108.13504	661.82819	762.72211	-101.89099	666.65265	-43.13891	789.36084	-828.16815	
16	0.150	-736.27496	99.62959	-539.17407	678.46405	94.19968	-455.03439	-807.09662	-107.99648	661.85785	762.70459	-101.86929	666.62134	-43.12973	789.35413	-828.15015	
17	0.160	-736.26117	99.62151	-539.16711	678.49286	94.20188	-454.99716	-807.10254	-107.99177	661.86761	762.77332	-101.86441	666.59253	-43.12668	789.28467	-828.05469	
18	0.170	-736.22833	99.58425	-539.17279	678.47925	94.15406	-455.07419	-807.09985	-108.07755	661.83002	762.70398	-101.87240	666.60687	-43.14684	789.22168	-827.94861	
19	0.180	-736.27039	99.55054	-539.16064	678.46613	94.17242	-455.04099	-807.08679	-108.08628	661.85565	762.67236	-101.88261	666.62787	-43.13950	789.17053	-827.86829	
20	0.190	-736.21735	99.54716	-539.17438	678.45593	94.16466	-455.06018	-807.08221	-108.09678	661.85077	762.72717	-101.90667	666.61603	-43.18171	789.18359	-827.84235	
21	0.200	-736.24170	99.56630	-539.16663	678.45837	94.16084	-455.10480	-807.10492	-108.12144	661.75604	762.71851	-101.83822	666.59363	-43.18244	789.19574	-827.79236	
22	0.210	-736.27100	99.66378	-539.18005	678.45972	94.18408	-455.07620	-807.10858	-108.01972	661.77875	762.65814	-101.89897	666.62256	-43.16633	789.21564	-827.84430	
23	0.220	-736.27295	99.66618	-539.16162	678.46613	94.14880	-455.07681	-807.10559	-108.03004	661.77094	762.66602	-101.83067	666.61829	-43.10670	789.27283	-827.94672	
24	0.230	-736.29297	99.67918	-539.16870	678.41650	94.15108	-455.12622	-807.09973	-108.12303	661.81531	762.65118	-101.81834	666.61139	-43.13184	789.27997	-827.95496	
25	0.240	-736.21777	99.69128	-539.15277	678.50281	94.17769	-454.96210	-807.07520	-108.19206	661.78131	762.69574	-101.89327	666.59253	-43.09362	789.31317	-827.98376	
26	0.250	-736.27277	99.70896	-539.17181	678.45319	94.21836	-454.99619	-807.09344	-107.92765	661.85187	762.60986	-101.66762	666.56482	-43.12241	789.29919	-827.99646	
27	0.260	-736.22992	99.67847	-539.18591	678.45367	94.20668	-455.02109	-807.02905	-107.76301	661.85376	762.62885	-101.80559	666.57385	-43.13140	789.21161	-827.93353	
28	0.270	-736.20929	99.58855	-539.18298	678.44263	94.20465	-455.05090	-807.06519	-107.76109	661.85138	762.65082	-101.85126	666.56696	-43.12674	789.21930	-827.93591	
29	0.280	-736.23169	99.57512	-539.20575	678.50092	94.14899	-454.98645	-807.11945	-107.99199	661.75549	762.66235	-101.78877	666.58899	-43.14351	789.17346	-827.86304	
30	0.290	-736.25476	99.59338	-539.18323	678.45050	94.13625	-455.08511	-807.09125	-108.14780	661.83612	762.75635	-101.87917	666.63354	-43.15762	789.23962	-828.02881	
31	0.300	-736.24042	99.59215	-539.16052	678.44067	94.12546	-455.11749	-807.05859	-107.97296	661.87811	762.73553	-101.91335	666.65186	-43.11313	789.23224	-828.00812	
32	0.310	-736.24304	99.63095	-539.15033	678.45184	94.16432	-455.06870	-807.07587	-108.14252	661.82562	762.67719	-101.81925	666.60938	-43.16219	789.33173	-828.12402	
33	0.320	-736.23291	99.68945	-539.14264	678.45654	94.19292	-455.07748	-807.07861	-107.88536	661.89862	762.62433	-101.83685	666.59723	-43.12913	789.35907	-828.16968	
34	0.330	-736.22632	99.71491	-539.17596	678.47113	94.20636	-455.03821	-807.08221	-108.00095	661.88062	762.73132	-101.94125	666.61530	-43.13901	789.34583	-828.05005	
35	0.340	-736.21942	99.61412	-539.15344	678.46771	94.16991	-455.05450	-807.08496	-108.17848	661.81799	762.73035	-101.94402	666.61328	-43.14901	789.33942	-828.10883	
36	0.350	-736.21973	99.58812	-539.13885	678.46924	94.12666	-455.07370	-807.05078	-108.10268	661.80865	762.76038	-101.97385	666.61920	-43.13688	789.22333	-827.89178	
37	0.360	-736.26147	99.62343	-539.14966	678.44037	94.12344	-455.09268	-806.90173	-108.50952	661.90070	762.69794	-101.96204	666.58710	-43.12231	789.19806	-827.82330	
38	0.370	-736.27856	99.62179	-539.20129	678.44427	94.10786	-455.09427	-807.01294	-108.22277	661.76556	762.69427	-101.80786	666.55347	-43.14173	789.16711	-827.77112	
39	0.380	-736.24854	99.69366	-539.17151	678.48547	94.13621	-455.08978	-806.99969	-108.08363	661.84442	762.65253	-101.85142	666.59235	-43.19707	789.15887	-827.76526	
40	0.390	-736.19464	99.60979	-539.17554	678.46295	94.16777	-455.10278	-806.98120	-108.24495	661.87390	762.68744	-101.82580	666.63281	-43.18147	789.19690	-827.85809	
41	0.400	-736.29559	99.63497	-539.18713	678.49261	94.07847	-455.07156	-806.99084	-108.39244	661.90234	762.76923	-101.87849	666.55634	-43.10610	789.17786	-827.89777	
42	0.410	-736.24805	99.58530	-539.17261	678.46692	94.13978	-455.05743	-806.92572	-108.39436	661.88452	762.75195	-101.92808	666.59027	-43.14796	789.23132	-828.02875	
